<svg width="43" height="24" viewBox="0 0 43 24" fill="none" xmlns="http://www.w3.org/2000/svg">
<path d="M37.6919 4.53501C39.2473 5.12649 40.5756 6.19053 41.5296 7.61073C42.4836 9.03094 42.9901 10.6996 43 12.4386H42.9974C43.0125 14.1737 42.5248 15.8489 41.5877 17.2804C40.6498 18.7128 39.3342 19.7928 37.7823 20.404C35.1135 21.4951 31.9739 21.1098 28.9471 19.3184L27.0757 18.1888C26.6273 18.6884 26.1207 19.128 25.5685 19.4965L25.556 19.504L18.2046 24V19.5283L29.2352 12.7639L29.1485 13.5241C29.0983 13.9666 29.0133 14.4072 28.8943 14.8365L30.7639 15.9567C33.3647 17.5054 35.2835 17.2701 36.4353 16.7995C37.0502 16.5539 37.614 16.163 38.0678 15.6689C38.5225 15.1749 38.8733 14.5703 39.0826 13.9197C39.2259 13.45 39.2984 12.9551 39.2966 12.4554C39.2948 11.5068 39.0183 10.5974 38.4956 9.82308C37.972 9.04969 37.2453 8.47415 36.3924 8.15729C35.228 7.69789 33.3056 7.48512 30.7236 9.06748L14.1602 19.2255L14.1317 19.2443C12.262 20.3908 10.2904 21.003 8.43151 21.0151C7.36469 21.0264 6.3131 20.8333 5.31161 20.4414C3.33998 19.6821 1.74513 18.1737 0.823304 16.1948C-0.0985225 14.2159 -0.251565 11.9717 0.391029 9.87465C0.7705 8.6785 1.40951 7.56758 2.23737 6.65835C3.06523 5.74902 4.09445 5.029 5.21407 4.57625C7.89899 3.47758 11.0386 3.86287 14.0528 5.66091L15.9225 6.78951C16.3718 6.28993 16.8792 5.85023 17.4332 5.48181L17.4413 5.47616L17.8324 5.23431L14.9837 3.54414C14.5961 3.27135 14.3231 2.85793 14.2158 2.38266C14.1075 1.90643 14.1755 1.4096 14.4055 0.983993C14.6355 0.5584 15.0069 0.241544 15.4518 0.0924912C15.8965 -0.0565613 16.3744 -0.0246836 16.7978 0.182488L16.8246 0.196551L21.4937 2.99387L26.0778 0.205927L26.0912 0.199364C26.51 -0.01062 26.9852 -0.0471853 27.4292 0.0953042C27.8739 0.238731 28.2481 0.548087 28.4826 0.967128C28.718 1.38616 28.7932 1.87925 28.6956 2.35453C28.5972 2.82981 28.3349 3.24603 27.9563 3.52726L27.9277 3.54601L13.7665 12.1095L13.8631 11.3436C13.9142 10.9387 13.9946 10.5346 14.1039 10.1409L12.2334 9.02061C9.63346 7.47106 7.71642 7.70822 6.56459 8.17978C5.70988 8.51165 4.98942 9.09753 4.47481 9.87742C3.95931 10.6574 3.69081 11.5705 3.69618 12.5182C3.70066 13.466 3.98078 14.3753 4.50434 15.1487C5.02701 15.9221 5.75373 16.4995 6.60665 16.8182C7.76922 17.2786 9.69074 17.4913 12.2737 15.908L28.8737 5.72931C30.7415 4.58469 32.7132 3.97348 34.5738 3.96129C35.6415 3.95005 36.6914 4.14316 37.6919 4.53501Z" fill="black"/>
</svg>
